<svg width="24" height="22" viewBox="0 0 24 22" fill="none" xmlns="http://www.w3.org/2000/svg">
<path d="M9.38477 16.8779C10.7236 16.8779 11.8086 17.9784 11.8086 19.3359C11.8085 20.6934 10.7236 21.7939 9.38477 21.7939C8.04597 21.7939 6.96104 20.6934 6.96094 19.3359C6.96094 17.9784 8.0459 16.8779 9.38477 16.8779ZM19.082 16.8779C20.4208 16.878 21.5059 17.9784 21.5059 19.3359C21.5058 20.6933 20.4207 21.7938 19.082 21.7939C17.7432 21.7939 16.6573 20.6934 16.6572 19.3359C16.6572 17.9784 17.7432 16.8779 19.082 16.8779ZM3.47461 0.0126953C3.81671 0.0705236 4.1009 0.32324 4.19336 0.666992L5.01758 3.73145L22.7783 4.91895C23.2508 4.95072 23.6181 5.34285 23.6182 5.81641V13.1904C23.618 13.66 23.2563 14.0512 22.7881 14.0879L7.03125 15.3174C6.59948 15.3511 6.20449 15.0714 6.0918 14.6533L3.44727 4.82129L2.63477 1.80078H0.900391C0.403465 1.80078 0.000211351 1.39727 0 0.900391C0 0.403334 0.403334 0 0.900391 0H3.32422L3.47461 0.0126953ZM9.02051 6.74121C8.86709 6.31177 8.40935 6.05949 7.95703 6.1709C7.50488 6.28254 7.21756 6.71847 7.28125 7.16992L7.29883 7.26074L8.51074 12.1768C8.62977 12.6593 9.11801 12.9539 9.60059 12.835C10.0828 12.7158 10.3775 12.2284 10.2588 11.7461L9.04688 6.8291L9.02051 6.74121ZM13.501 6.46094C13.0398 6.52627 12.7097 6.93097 12.7275 7.38672L12.7354 7.47852L13.3418 11.7793L13.3594 11.8701C13.4682 12.3129 13.8972 12.6106 14.3584 12.5459C14.8199 12.4809 15.1506 12.0761 15.1328 11.6201L15.124 11.5283L14.5186 7.22656L14.501 7.13672C14.3921 6.69364 13.9625 6.39592 13.501 6.46094ZM19.082 6.75977C18.585 6.75977 18.1816 7.1631 18.1816 7.66016V11.3477C18.182 11.8444 18.5852 12.2471 19.082 12.2471C19.5787 12.2469 19.982 11.8443 19.9824 11.3477V7.66016C19.9824 7.16319 19.579 6.75991 19.082 6.75977Z" fill="white"/>
</svg>
