<svg width="24" height="24" viewBox="0 0 24 24" fill="none" xmlns="http://www.w3.org/2000/svg">
<path d="M12.0004 0.100006C18.5764 0.10022 23.9008 5.50747 23.9008 12.0004C23.9006 15.9903 22.1229 18.5269 21.1732 19.5951L20.5004 18.9965L19.8275 18.3988C20.5846 17.5472 22.0999 15.4186 22.1 12.0004C22.1 6.49358 17.5743 1.901 12.0004 1.90079C6.42229 1.90079 1.90076 6.42232 1.90076 12.0004C1.90097 17.5743 6.49355 22.1 12.0004 22.1C14.7689 22.0999 16.0382 21.0774 16.5306 20.1889C16.7888 19.723 16.861 19.2545 16.8187 18.8842C16.8103 18.8109 16.7956 18.7447 16.7806 18.685C16.4501 18.8491 16.1024 18.9762 15.7338 18.9936C14.5579 19.0488 11.6613 18.7912 8.43494 15.5648C5.20855 12.3384 4.95095 9.44174 5.00623 8.26602C5.02376 7.89311 5.15278 7.54136 5.3197 7.20743C5.51963 6.80758 5.8551 6.49095 6.26599 6.31485L6.80701 6.0834C7.26277 5.88808 7.7927 6.04583 8.06775 6.4584L9.26697 8.25723C9.58188 8.72988 9.45438 9.36793 8.98181 9.68301L8.34705 10.1068C8.22049 10.1912 8.11259 10.3026 8.07361 10.4496C7.94617 10.9319 7.88789 12.2131 9.83728 14.1625C11.7868 16.112 13.0679 16.0546 13.5502 15.9272C13.6974 15.8882 13.8094 15.7795 13.8939 15.6527L14.3168 15.018C14.6319 14.5454 15.2709 14.4177 15.7435 14.7328L17.5414 15.932C17.9291 16.1905 18.0916 16.6741 17.9476 17.1098C18.332 17.5432 18.543 18.1136 18.6078 18.6791C18.6941 19.4336 18.5392 20.2782 18.1049 21.0619C17.2118 22.673 15.2308 23.9007 12.0004 23.9008C5.50744 23.9008 0.10019 18.5764 0.0999756 12.0004C0.0999756 5.42821 5.42818 0.100006 12.0004 0.100006ZM21.1732 19.5951C20.8431 19.9663 20.2742 19.999 19.9027 19.6693C19.5313 19.3391 19.4974 18.7703 19.8275 18.3988L21.1732 19.5951ZM12.2523 7.10684C14.8412 7.23819 16.9008 9.37884 16.9008 12.0004C16.9005 12.4971 16.4971 12.9006 16.0004 12.9008C15.5034 12.9008 15.1002 12.4973 15.1 12.0004C15.1 10.3418 13.7975 8.98776 12.1595 8.90469L12.0004 8.90079L11.9086 8.8959C11.4548 8.84994 11.1002 8.46629 11.1 8.0004C11.1 7.50334 11.5033 7.10001 12.0004 7.10001L12.2523 7.10684ZM12.4066 4.11075C16.5807 4.3224 19.9008 7.77374 19.9008 12.0004C19.9005 12.4971 19.4971 12.9006 19.0004 12.9008C18.5034 12.9008 18.1002 12.4973 18.1 12.0004C18.1 8.73674 15.5369 6.07197 12.3138 5.9086L12.0004 5.90079L11.9086 5.8959C11.4548 5.84994 11.1002 5.46629 11.1 5.0004C11.1 4.50334 11.5033 4.10001 12.0004 4.10001L12.4066 4.11075Z" fill="#262F56"/>
</svg>
