<svg width="24" height="24" viewBox="0 0 24 24" fill="none" xmlns="http://www.w3.org/2000/svg">
<path d="M13.5 4C16.7873 4 18.4308 4.00037 19.5371 4.9082C19.7396 5.07442 19.9256 5.26035 20.0918 5.46289C20.9996 6.56924 21 8.21267 21 11.5C21 14.7873 20.9996 16.4308 20.0918 17.5371C19.9256 17.7396 19.7396 17.9256 19.5371 18.0918C18.4308 18.9996 16.7873 19 13.5 19H9.30176C8.66778 19 8.35059 19.0002 8.04785 19.0469C7.41299 19.1448 6.81012 19.3937 6.29199 19.7734C6.04482 19.9546 5.82069 20.1793 5.37207 20.6279C4.81866 21.1813 4.54154 21.4583 4.32031 21.5332C3.84565 21.6937 3.32548 21.4776 3.10352 21.0283C3.00022 20.8189 3 20.4277 3 19.6455V12C3 8.22876 3.0003 6.34345 4.17188 5.17188C5.34345 4.0003 7.22876 4 11 4H13.5ZM7.5 10C6.67157 10 6 10.6716 6 11.5C6 12.3284 6.67157 13 7.5 13C8.32843 13 9 12.3284 9 11.5C9 10.6716 8.32843 10 7.5 10ZM12 10C11.1716 10 10.5 10.6716 10.5 11.5C10.5 12.3284 11.1716 13 12 13C12.8284 13 13.5 12.3284 13.5 11.5C13.5 10.6716 12.8284 10 12 10ZM16.5 10C15.6716 10 15 10.6716 15 11.5C15 12.3284 15.6716 13 16.5 13C17.3284 13 18 12.3284 18 11.5C18 10.6716 17.3284 10 16.5 10Z" fill="#2A3256"/>
</svg>
